<?xml version="1.0" encoding="UTF-8" standalone="no"?>
<!DOCTYPE svg PUBLIC "-//W3C//DTD SVG 1.1//EN"
 "http://www.w3.org/Graphics/SVG/1.1/DTD/svg11.dtd">
<!-- Generated by graphviz version 2.40.1 (20161225.0304)
 -->
<!-- Title: controllers_diagram Pages: 1 -->
<svg width="1202pt" height="1148pt"
 viewBox="0.00 0.00 1202.00 1148.00" xmlns="http://www.w3.org/2000/svg" xmlns:xlink="http://www.w3.org/1999/xlink">
<g id="graph0" class="graph" transform="scale(1 1) rotate(0) translate(4 1144)">
<title>controllers_diagram</title>
<polygon fill="transparent" stroke="transparent" points="-4,4 -4,-1144 1198,-1144 1198,4 -4,4"/>
<!-- _diagram_info -->
<g id="node1" class="node">
<title>_diagram_info</title>
<text text-anchor="start" x="559" y="-291.6" font-family="Times,serif" font-size="13.00" fill="#000000">Controllers diagram</text>
<text text-anchor="start" x="559" y="-277.6" font-family="Times,serif" font-size="13.00" fill="#000000">Date: May 14 2020 &#45; 14:14</text>
<text text-anchor="start" x="559" y="-263.6" font-family="Times,serif" font-size="13.00" fill="#000000">Migration version: 20200512195620</text>
<text text-anchor="start" x="559" y="-249.6" font-family="Times,serif" font-size="13.00" fill="#000000">Generated by RailRoady 1.5.3</text>
<text text-anchor="start" x="559" y="-235.6" font-family="Times,serif" font-size="13.00" fill="#000000">http://railroady.prestonlee.com</text>
</g>
<!-- Admin::AnswersController -->
<g id="node2" class="node">
<title>Admin::AnswersController</title>
<path fill="none" stroke="#000000" d="M69,-779.5C69,-779.5 252,-779.5 252,-779.5 258,-779.5 264,-785.5 264,-791.5 264,-791.5 264,-861.5 264,-861.5 264,-867.5 258,-873.5 252,-873.5 252,-873.5 69,-873.5 69,-873.5 63,-873.5 57,-867.5 57,-861.5 57,-861.5 57,-791.5 57,-791.5 57,-785.5 63,-779.5 69,-779.5"/>
<text text-anchor="middle" x="160.5" y="-858.3" font-family="Times,serif" font-size="14.00" fill="#000000">Admin::AnswersController</text>
<polyline fill="none" stroke="#000000" points="57,-850.5 264,-850.5 "/>
<polyline fill="none" stroke="#000000" points="57,-826.5 264,-826.5 "/>
<polyline fill="none" stroke="#000000" points="57,-802.5 264,-802.5 "/>
<text text-anchor="start" x="65" y="-787.3" font-family="Times,serif" font-size="14.00" fill="#000000">_layout</text>
</g>
<!-- Admin::ApplicationController -->
<g id="node3" class="node">
<title>Admin::ApplicationController</title>
<path fill="none" stroke="#000000" d="M278,-912.5C278,-912.5 481,-912.5 481,-912.5 487,-912.5 493,-918.5 493,-924.5 493,-924.5 493,-993.5 493,-993.5 493,-999.5 487,-1005.5 481,-1005.5 481,-1005.5 278,-1005.5 278,-1005.5 272,-1005.5 266,-999.5 266,-993.5 266,-993.5 266,-924.5 266,-924.5 266,-918.5 272,-912.5 278,-912.5"/>
<text text-anchor="middle" x="379.5" y="-990.3" font-family="Times,serif" font-size="14.00" fill="#000000">Admin::ApplicationController</text>
<polyline fill="none" stroke="#000000" points="266,-982.5 493,-982.5 "/>
<text text-anchor="start" x="274" y="-967.3" font-family="Times,serif" font-size="14.00" fill="#000000">authenticate_admin</text>
<polyline fill="none" stroke="#000000" points="266,-959.5 493,-959.5 "/>
<polyline fill="none" stroke="#000000" points="266,-935.5 493,-935.5 "/>
<text text-anchor="start" x="274" y="-920.3" font-family="Times,serif" font-size="14.00" fill="#000000">_layout</text>
</g>
<!-- Admin::AttendancesController -->
<g id="node4" class="node">
<title>Admin::AttendancesController</title>
<path fill="none" stroke="#000000" d="M848,-171.5C848,-171.5 1060,-171.5 1060,-171.5 1066,-171.5 1072,-177.5 1072,-183.5 1072,-183.5 1072,-253.5 1072,-253.5 1072,-259.5 1066,-265.5 1060,-265.5 1060,-265.5 848,-265.5 848,-265.5 842,-265.5 836,-259.5 836,-253.5 836,-253.5 836,-183.5 836,-183.5 836,-177.5 842,-171.5 848,-171.5"/>
<text text-anchor="middle" x="954" y="-250.3" font-family="Times,serif" font-size="14.00" fill="#000000">Admin::AttendancesController</text>
<polyline fill="none" stroke="#000000" points="836,-242.5 1072,-242.5 "/>
<polyline fill="none" stroke="#000000" points="836,-218.5 1072,-218.5 "/>
<polyline fill="none" stroke="#000000" points="836,-194.5 1072,-194.5 "/>
<text text-anchor="start" x="844" y="-179.3" font-family="Times,serif" font-size="14.00" fill="#000000">_layout</text>
</g>
<!-- Admin::CategoriesController -->
<g id="node5" class="node">
<title>Admin::CategoriesController</title>
<path fill="none" stroke="#000000" d="M506,-95.5C506,-95.5 706,-95.5 706,-95.5 712,-95.5 718,-101.5 718,-107.5 718,-107.5 718,-177.5 718,-177.5 718,-183.5 712,-189.5 706,-189.5 706,-189.5 506,-189.5 506,-189.5 500,-189.5 494,-183.5 494,-177.5 494,-177.5 494,-107.5 494,-107.5 494,-101.5 500,-95.5 506,-95.5"/>
<text text-anchor="middle" x="606" y="-174.3" font-family="Times,serif" font-size="14.00" fill="#000000">Admin::CategoriesController</text>
<polyline fill="none" stroke="#000000" points="494,-166.5 718,-166.5 "/>
<polyline fill="none" stroke="#000000" points="494,-142.5 718,-142.5 "/>
<polyline fill="none" stroke="#000000" points="494,-118.5 718,-118.5 "/>
<text text-anchor="start" x="502" y="-103.3" font-family="Times,serif" font-size="14.00" fill="#000000">_layout</text>
</g>
<!-- Admin::CoursesController -->
<g id="node6" class="node">
<title>Admin::CoursesController</title>
<path fill="none" stroke="#000000" d="M772,-38.5C772,-38.5 952,-38.5 952,-38.5 958,-38.5 964,-44.5 964,-50.5 964,-50.5 964,-120.5 964,-120.5 964,-126.5 958,-132.5 952,-132.5 952,-132.5 772,-132.5 772,-132.5 766,-132.5 760,-126.5 760,-120.5 760,-120.5 760,-50.5 760,-50.5 760,-44.5 766,-38.5 772,-38.5"/>
<text text-anchor="middle" x="862" y="-117.3" font-family="Times,serif" font-size="14.00" fill="#000000">Admin::CoursesController</text>
<polyline fill="none" stroke="#000000" points="760,-109.5 964,-109.5 "/>
<polyline fill="none" stroke="#000000" points="760,-85.5 964,-85.5 "/>
<polyline fill="none" stroke="#000000" points="760,-61.5 964,-61.5 "/>
<text text-anchor="start" x="768" y="-46.3" font-family="Times,serif" font-size="14.00" fill="#000000">_layout</text>
</g>
<!-- Admin::GivenTasksController -->
<g id="node7" class="node">
<title>Admin::GivenTasksController</title>
<path fill="none" stroke="#000000" d="M924,-627.5C924,-627.5 1128,-627.5 1128,-627.5 1134,-627.5 1140,-633.5 1140,-639.5 1140,-639.5 1140,-709.5 1140,-709.5 1140,-715.5 1134,-721.5 1128,-721.5 1128,-721.5 924,-721.5 924,-721.5 918,-721.5 912,-715.5 912,-709.5 912,-709.5 912,-639.5 912,-639.5 912,-633.5 918,-627.5 924,-627.5"/>
<text text-anchor="middle" x="1026" y="-706.3" font-family="Times,serif" font-size="14.00" fill="#000000">Admin::GivenTasksController</text>
<polyline fill="none" stroke="#000000" points="912,-698.5 1140,-698.5 "/>
<polyline fill="none" stroke="#000000" points="912,-674.5 1140,-674.5 "/>
<polyline fill="none" stroke="#000000" points="912,-650.5 1140,-650.5 "/>
<text text-anchor="start" x="920" y="-635.3" font-family="Times,serif" font-size="14.00" fill="#000000">_layout</text>
</g>
<!-- Admin::GroupsController -->
<g id="node8" class="node">
<title>Admin::GroupsController</title>
<path fill="none" stroke="#000000" d="M50,-969.5C50,-969.5 223,-969.5 223,-969.5 229,-969.5 235,-975.5 235,-981.5 235,-981.5 235,-1051.5 235,-1051.5 235,-1057.5 229,-1063.5 223,-1063.5 223,-1063.5 50,-1063.5 50,-1063.5 44,-1063.5 38,-1057.5 38,-1051.5 38,-1051.5 38,-981.5 38,-981.5 38,-975.5 44,-969.5 50,-969.5"/>
<text text-anchor="middle" x="136.5" y="-1048.3" font-family="Times,serif" font-size="14.00" fill="#000000">Admin::GroupsController</text>
<polyline fill="none" stroke="#000000" points="38,-1040.5 235,-1040.5 "/>
<polyline fill="none" stroke="#000000" points="38,-1016.5 235,-1016.5 "/>
<polyline fill="none" stroke="#000000" points="38,-992.5 235,-992.5 "/>
<text text-anchor="start" x="46" y="-977.3" font-family="Times,serif" font-size="14.00" fill="#000000">_layout</text>
</g>
<!-- Admin::LessonsController -->
<g id="node9" class="node">
<title>Admin::LessonsController</title>
<path fill="none" stroke="#000000" d="M31,-304.5C31,-304.5 210,-304.5 210,-304.5 216,-304.5 222,-310.5 222,-316.5 222,-316.5 222,-386.5 222,-386.5 222,-392.5 216,-398.5 210,-398.5 210,-398.5 31,-398.5 31,-398.5 25,-398.5 19,-392.5 19,-386.5 19,-386.5 19,-316.5 19,-316.5 19,-310.5 25,-304.5 31,-304.5"/>
<text text-anchor="middle" x="120.5" y="-383.3" font-family="Times,serif" font-size="14.00" fill="#000000">Admin::LessonsController</text>
<polyline fill="none" stroke="#000000" points="19,-375.5 222,-375.5 "/>
<polyline fill="none" stroke="#000000" points="19,-351.5 222,-351.5 "/>
<polyline fill="none" stroke="#000000" points="19,-327.5 222,-327.5 "/>
<text text-anchor="start" x="27" y="-312.3" font-family="Times,serif" font-size="14.00" fill="#000000">_layout</text>
</g>
<!-- Admin::PackOfTasksController -->
<g id="node10" class="node">
<title>Admin::PackOfTasksController</title>
<path fill="none" stroke="#000000" d="M145,-152.5C145,-152.5 360,-152.5 360,-152.5 366,-152.5 372,-158.5 372,-164.5 372,-164.5 372,-234.5 372,-234.5 372,-240.5 366,-246.5 360,-246.5 360,-246.5 145,-246.5 145,-246.5 139,-246.5 133,-240.5 133,-234.5 133,-234.5 133,-164.5 133,-164.5 133,-158.5 139,-152.5 145,-152.5"/>
<text text-anchor="middle" x="252.5" y="-231.3" font-family="Times,serif" font-size="14.00" fill="#000000">Admin::PackOfTasksController</text>
<polyline fill="none" stroke="#000000" points="133,-223.5 372,-223.5 "/>
<polyline fill="none" stroke="#000000" points="133,-199.5 372,-199.5 "/>
<polyline fill="none" stroke="#000000" points="133,-175.5 372,-175.5 "/>
<text text-anchor="start" x="141" y="-160.3" font-family="Times,serif" font-size="14.00" fill="#000000">_layout</text>
</g>
<!-- Admin::ParentsController -->
<g id="node11" class="node">
<title>Admin::ParentsController</title>
<path fill="none" stroke="#000000" d="M1000,-494.5C1000,-494.5 1176,-494.5 1176,-494.5 1182,-494.5 1188,-500.5 1188,-506.5 1188,-506.5 1188,-576.5 1188,-576.5 1188,-582.5 1182,-588.5 1176,-588.5 1176,-588.5 1000,-588.5 1000,-588.5 994,-588.5 988,-582.5 988,-576.5 988,-576.5 988,-506.5 988,-506.5 988,-500.5 994,-494.5 1000,-494.5"/>
<text text-anchor="middle" x="1088" y="-573.3" font-family="Times,serif" font-size="14.00" fill="#000000">Admin::ParentsController</text>
<polyline fill="none" stroke="#000000" points="988,-565.5 1188,-565.5 "/>
<polyline fill="none" stroke="#000000" points="988,-541.5 1188,-541.5 "/>
<polyline fill="none" stroke="#000000" points="988,-517.5 1188,-517.5 "/>
<text text-anchor="start" x="996" y="-502.3" font-family="Times,serif" font-size="14.00" fill="#000000">_layout</text>
</g>
<!-- Admin::PaybacksController -->
<g id="node12" class="node">
<title>Admin::PaybacksController</title>
<path fill="none" stroke="#000000" d="M107,-570.5C107,-570.5 296,-570.5 296,-570.5 302,-570.5 308,-576.5 308,-582.5 308,-582.5 308,-652.5 308,-652.5 308,-658.5 302,-664.5 296,-664.5 296,-664.5 107,-664.5 107,-664.5 101,-664.5 95,-658.5 95,-652.5 95,-652.5 95,-582.5 95,-582.5 95,-576.5 101,-570.5 107,-570.5"/>
<text text-anchor="middle" x="201.5" y="-649.3" font-family="Times,serif" font-size="14.00" fill="#000000">Admin::PaybacksController</text>
<polyline fill="none" stroke="#000000" points="95,-641.5 308,-641.5 "/>
<polyline fill="none" stroke="#000000" points="95,-617.5 308,-617.5 "/>
<polyline fill="none" stroke="#000000" points="95,-593.5 308,-593.5 "/>
<text text-anchor="start" x="103" y="-578.3" font-family="Times,serif" font-size="14.00" fill="#000000">_layout</text>
</g>
<!-- Admin::PaymentsController -->
<g id="node13" class="node">
<title>Admin::PaymentsController</title>
<path fill="none" stroke="#000000" d="M107,-437.5C107,-437.5 298,-437.5 298,-437.5 304,-437.5 310,-443.5 310,-449.5 310,-449.5 310,-519.5 310,-519.5 310,-525.5 304,-531.5 298,-531.5 298,-531.5 107,-531.5 107,-531.5 101,-531.5 95,-525.5 95,-519.5 95,-519.5 95,-449.5 95,-449.5 95,-443.5 101,-437.5 107,-437.5"/>
<text text-anchor="middle" x="202.5" y="-516.3" font-family="Times,serif" font-size="14.00" fill="#000000">Admin::PaymentsController</text>
<polyline fill="none" stroke="#000000" points="95,-508.5 310,-508.5 "/>
<polyline fill="none" stroke="#000000" points="95,-484.5 310,-484.5 "/>
<polyline fill="none" stroke="#000000" points="95,-460.5 310,-460.5 "/>
<text text-anchor="start" x="103" y="-445.3" font-family="Times,serif" font-size="14.00" fill="#000000">_layout</text>
</g>
<!-- Admin::StudentParentsController -->
<g id="node14" class="node">
<title>Admin::StudentParentsController</title>
<path fill="none" stroke="#000000" d="M278,-285.5C278,-285.5 511,-285.5 511,-285.5 517,-285.5 523,-291.5 523,-297.5 523,-297.5 523,-367.5 523,-367.5 523,-373.5 517,-379.5 511,-379.5 511,-379.5 278,-379.5 278,-379.5 272,-379.5 266,-373.5 266,-367.5 266,-367.5 266,-297.5 266,-297.5 266,-291.5 272,-285.5 278,-285.5"/>
<text text-anchor="middle" x="394.5" y="-364.3" font-family="Times,serif" font-size="14.00" fill="#000000">Admin::StudentParentsController</text>
<polyline fill="none" stroke="#000000" points="266,-356.5 523,-356.5 "/>
<polyline fill="none" stroke="#000000" points="266,-332.5 523,-332.5 "/>
<polyline fill="none" stroke="#000000" points="266,-308.5 523,-308.5 "/>
<text text-anchor="start" x="274" y="-293.3" font-family="Times,serif" font-size="14.00" fill="#000000">_layout</text>
</g>
<!-- Admin::StudentsController -->
<g id="node15" class="node">
<title>Admin::StudentsController</title>
<path fill="none" stroke="#000000" d="M12,-19.5C12,-19.5 198,-19.5 198,-19.5 204,-19.5 210,-25.5 210,-31.5 210,-31.5 210,-101.5 210,-101.5 210,-107.5 204,-113.5 198,-113.5 198,-113.5 12,-113.5 12,-113.5 6,-113.5 0,-107.5 0,-101.5 0,-101.5 0,-31.5 0,-31.5 0,-25.5 6,-19.5 12,-19.5"/>
<text text-anchor="middle" x="105" y="-98.3" font-family="Times,serif" font-size="14.00" fill="#000000">Admin::StudentsController</text>
<polyline fill="none" stroke="#000000" points="0,-90.5 210,-90.5 "/>
<polyline fill="none" stroke="#000000" points="0,-66.5 210,-66.5 "/>
<polyline fill="none" stroke="#000000" points="0,-42.5 210,-42.5 "/>
<text text-anchor="start" x="8" y="-27.3" font-family="Times,serif" font-size="14.00" fill="#000000">_layout</text>
</g>
<!-- Admin::StudentsInGroupsController -->
<g id="node16" class="node">
<title>Admin::StudentsInGroupsController</title>
<path fill="none" stroke="#000000" d="M677,-494.5C677,-494.5 930,-494.5 930,-494.5 936,-494.5 942,-500.5 942,-506.5 942,-506.5 942,-576.5 942,-576.5 942,-582.5 936,-588.5 930,-588.5 930,-588.5 677,-588.5 677,-588.5 671,-588.5 665,-582.5 665,-576.5 665,-576.5 665,-506.5 665,-506.5 665,-500.5 671,-494.5 677,-494.5"/>
<text text-anchor="middle" x="803.5" y="-573.3" font-family="Times,serif" font-size="14.00" fill="#000000">Admin::StudentsInGroupsController</text>
<polyline fill="none" stroke="#000000" points="665,-565.5 942,-565.5 "/>
<polyline fill="none" stroke="#000000" points="665,-541.5 942,-541.5 "/>
<polyline fill="none" stroke="#000000" points="665,-517.5 942,-517.5 "/>
<text text-anchor="start" x="673" y="-502.3" font-family="Times,serif" font-size="14.00" fill="#000000">_layout</text>
</g>
<!-- Admin::TasksController -->
<g id="node17" class="node">
<title>Admin::TasksController</title>
<path fill="none" stroke="#000000" d="M1019,-.5C1019,-.5 1182,-.5 1182,-.5 1188,-.5 1194,-6.5 1194,-12.5 1194,-12.5 1194,-82.5 1194,-82.5 1194,-88.5 1188,-94.5 1182,-94.5 1182,-94.5 1019,-94.5 1019,-94.5 1013,-94.5 1007,-88.5 1007,-82.5 1007,-82.5 1007,-12.5 1007,-12.5 1007,-6.5 1013,-.5 1019,-.5"/>
<text text-anchor="middle" x="1100.5" y="-79.3" font-family="Times,serif" font-size="14.00" fill="#000000">Admin::TasksController</text>
<polyline fill="none" stroke="#000000" points="1007,-71.5 1194,-71.5 "/>
<polyline fill="none" stroke="#000000" points="1007,-47.5 1194,-47.5 "/>
<polyline fill="none" stroke="#000000" points="1007,-23.5 1194,-23.5 "/>
<text text-anchor="start" x="1015" y="-8.3" font-family="Times,serif" font-size="14.00" fill="#000000">_layout</text>
</g>
<!-- Admin::TasksInPacksController -->
<g id="node18" class="node">
<title>Admin::TasksInPacksController</title>
<path fill="none" stroke="#000000" d="M544,-912.5C544,-912.5 764,-912.5 764,-912.5 770,-912.5 776,-918.5 776,-924.5 776,-924.5 776,-994.5 776,-994.5 776,-1000.5 770,-1006.5 764,-1006.5 764,-1006.5 544,-1006.5 544,-1006.5 538,-1006.5 532,-1000.5 532,-994.5 532,-994.5 532,-924.5 532,-924.5 532,-918.5 538,-912.5 544,-912.5"/>
<text text-anchor="middle" x="654" y="-991.3" font-family="Times,serif" font-size="14.00" fill="#000000">Admin::TasksInPacksController</text>
<polyline fill="none" stroke="#000000" points="532,-983.5 776,-983.5 "/>
<polyline fill="none" stroke="#000000" points="532,-959.5 776,-959.5 "/>
<polyline fill="none" stroke="#000000" points="532,-935.5 776,-935.5 "/>
<text text-anchor="start" x="540" y="-920.3" font-family="Times,serif" font-size="14.00" fill="#000000">_layout</text>
</g>
<!-- Admin::TestsController -->
<g id="node19" class="node">
<title>Admin::TestsController</title>
<path fill="none" stroke="#000000" d="M1019,-304.5C1019,-304.5 1179,-304.5 1179,-304.5 1185,-304.5 1191,-310.5 1191,-316.5 1191,-316.5 1191,-386.5 1191,-386.5 1191,-392.5 1185,-398.5 1179,-398.5 1179,-398.5 1019,-398.5 1019,-398.5 1013,-398.5 1007,-392.5 1007,-386.5 1007,-386.5 1007,-316.5 1007,-316.5 1007,-310.5 1013,-304.5 1019,-304.5"/>
<text text-anchor="middle" x="1099" y="-383.3" font-family="Times,serif" font-size="14.00" fill="#000000">Admin::TestsController</text>
<polyline fill="none" stroke="#000000" points="1007,-375.5 1191,-375.5 "/>
<polyline fill="none" stroke="#000000" points="1007,-351.5 1191,-351.5 "/>
<polyline fill="none" stroke="#000000" points="1007,-327.5 1191,-327.5 "/>
<text text-anchor="start" x="1015" y="-312.3" font-family="Times,serif" font-size="14.00" fill="#000000">_layout</text>
</g>
<!-- Admin::ThemesController -->
<g id="node20" class="node">
<title>Admin::ThemesController</title>
<path fill="none" stroke="#000000" d="M259,-19.5C259,-19.5 437,-19.5 437,-19.5 443,-19.5 449,-25.5 449,-31.5 449,-31.5 449,-101.5 449,-101.5 449,-107.5 443,-113.5 437,-113.5 437,-113.5 259,-113.5 259,-113.5 253,-113.5 247,-107.5 247,-101.5 247,-101.5 247,-31.5 247,-31.5 247,-25.5 253,-19.5 259,-19.5"/>
<text text-anchor="middle" x="348" y="-98.3" font-family="Times,serif" font-size="14.00" fill="#000000">Admin::ThemesController</text>
<polyline fill="none" stroke="#000000" points="247,-90.5 449,-90.5 "/>
<polyline fill="none" stroke="#000000" points="247,-66.5 449,-66.5 "/>
<polyline fill="none" stroke="#000000" points="247,-42.5 449,-42.5 "/>
<text text-anchor="start" x="255" y="-27.3" font-family="Times,serif" font-size="14.00" fill="#000000">_layout</text>
</g>
<!-- Admin::UsersController -->
<g id="node21" class="node">
<title>Admin::UsersController</title>
<path fill="none" stroke="#000000" d="M601,-1045.5C601,-1045.5 765,-1045.5 765,-1045.5 771,-1045.5 777,-1051.5 777,-1057.5 777,-1057.5 777,-1127.5 777,-1127.5 777,-1133.5 771,-1139.5 765,-1139.5 765,-1139.5 601,-1139.5 601,-1139.5 595,-1139.5 589,-1133.5 589,-1127.5 589,-1127.5 589,-1057.5 589,-1057.5 589,-1051.5 595,-1045.5 601,-1045.5"/>
<text text-anchor="middle" x="683" y="-1124.3" font-family="Times,serif" font-size="14.00" fill="#000000">Admin::UsersController</text>
<polyline fill="none" stroke="#000000" points="589,-1116.5 777,-1116.5 "/>
<polyline fill="none" stroke="#000000" points="589,-1092.5 777,-1092.5 "/>
<polyline fill="none" stroke="#000000" points="589,-1068.5 777,-1068.5 "/>
<text text-anchor="start" x="597" y="-1053.3" font-family="Times,serif" font-size="14.00" fill="#000000">_layout</text>
</g>
<!-- Api::V1::Answers::AnswersController -->
<g id="node22" class="node">
<title>Api::V1::Answers::AnswersController</title>
<path fill="none" stroke="#000000" d="M354,-418.5C354,-418.5 614,-418.5 614,-418.5 620,-418.5 626,-424.5 626,-430.5 626,-430.5 626,-574.5 626,-574.5 626,-580.5 620,-586.5 614,-586.5 614,-586.5 354,-586.5 354,-586.5 348,-586.5 342,-580.5 342,-574.5 342,-574.5 342,-430.5 342,-430.5 342,-424.5 348,-418.5 354,-418.5"/>
<text text-anchor="middle" x="484" y="-571.3" font-family="Times,serif" font-size="14.00" fill="#000000">Api::V1::Answers::AnswersController</text>
<polyline fill="none" stroke="#000000" points="342,-563.5 626,-563.5 "/>
<text text-anchor="start" x="350" y="-548.3" font-family="Times,serif" font-size="14.00" fill="#000000">create</text>
<text text-anchor="start" x="350" y="-533.3" font-family="Times,serif" font-size="14.00" fill="#000000">destroy</text>
<text text-anchor="start" x="350" y="-518.3" font-family="Times,serif" font-size="14.00" fill="#000000">index</text>
<text text-anchor="start" x="350" y="-503.3" font-family="Times,serif" font-size="14.00" fill="#000000">show</text>
<text text-anchor="start" x="350" y="-488.3" font-family="Times,serif" font-size="14.00" fill="#000000">update</text>
<polyline fill="none" stroke="#000000" points="342,-480.5 626,-480.5 "/>
<polyline fill="none" stroke="#000000" points="342,-456.5 626,-456.5 "/>
<text text-anchor="start" x="350" y="-441.3" font-family="Times,serif" font-size="14.00" fill="#000000">answer_params</text>
<text text-anchor="start" x="350" y="-426.3" font-family="Times,serif" font-size="14.00" fill="#000000">set_answer</text>
</g>
<!-- Api::V1::Answers::GetAnswersController -->
<g id="node23" class="node">
<title>Api::V1::Answers::GetAnswersController</title>
<path fill="none" stroke="#000000" d="M677,-342.5C677,-342.5 962,-342.5 962,-342.5 968,-342.5 974,-348.5 974,-354.5 974,-354.5 974,-439.5 974,-439.5 974,-445.5 968,-451.5 962,-451.5 962,-451.5 677,-451.5 677,-451.5 671,-451.5 665,-445.5 665,-439.5 665,-439.5 665,-354.5 665,-354.5 665,-348.5 671,-342.5 677,-342.5"/>
<text text-anchor="middle" x="819.5" y="-436.3" font-family="Times,serif" font-size="14.00" fill="#000000">Api::V1::Answers::GetAnswersController</text>
<polyline fill="none" stroke="#000000" points="665,-428.5 974,-428.5 "/>
<text text-anchor="start" x="673" y="-413.3" font-family="Times,serif" font-size="14.00" fill="#000000">by_student</text>
<text text-anchor="start" x="673" y="-398.3" font-family="Times,serif" font-size="14.00" fill="#000000">by_task</text>
<polyline fill="none" stroke="#000000" points="665,-390.5 974,-390.5 "/>
<polyline fill="none" stroke="#000000" points="665,-366.5 974,-366.5 "/>
</g>
<!-- Api::V1::Lessons::LessonsController -->
<g id="node24" class="node">
<title>Api::V1::Lessons::LessonsController</title>
<path fill="none" stroke="#000000" d="M620,-627.5C620,-627.5 872,-627.5 872,-627.5 878,-627.5 884,-633.5 884,-639.5 884,-639.5 884,-783.5 884,-783.5 884,-789.5 878,-795.5 872,-795.5 872,-795.5 620,-795.5 620,-795.5 614,-795.5 608,-789.5 608,-783.5 608,-783.5 608,-639.5 608,-639.5 608,-633.5 614,-627.5 620,-627.5"/>
<text text-anchor="middle" x="746" y="-780.3" font-family="Times,serif" font-size="14.00" fill="#000000">Api::V1::Lessons::LessonsController</text>
<polyline fill="none" stroke="#000000" points="608,-772.5 884,-772.5 "/>
<text text-anchor="start" x="616" y="-757.3" font-family="Times,serif" font-size="14.00" fill="#000000">create</text>
<text text-anchor="start" x="616" y="-742.3" font-family="Times,serif" font-size="14.00" fill="#000000">destroy</text>
<text text-anchor="start" x="616" y="-727.3" font-family="Times,serif" font-size="14.00" fill="#000000">index</text>
<text text-anchor="start" x="616" y="-712.3" font-family="Times,serif" font-size="14.00" fill="#000000">show</text>
<text text-anchor="start" x="616" y="-697.3" font-family="Times,serif" font-size="14.00" fill="#000000">update</text>
<polyline fill="none" stroke="#000000" points="608,-689.5 884,-689.5 "/>
<polyline fill="none" stroke="#000000" points="608,-665.5 884,-665.5 "/>
<text text-anchor="start" x="616" y="-650.3" font-family="Times,serif" font-size="14.00" fill="#000000">leson_params</text>
<text text-anchor="start" x="616" y="-635.3" font-family="Times,serif" font-size="14.00" fill="#000000">set_lesson</text>
</g>
<!-- Api::V1::Tasks::GetTasksController -->
<g id="node25" class="node">
<title>Api::V1::Tasks::GetTasksController</title>
<path fill="none" stroke="#000000" d="M316,-703.5C316,-703.5 561,-703.5 561,-703.5 567,-703.5 573,-709.5 573,-715.5 573,-715.5 573,-860.5 573,-860.5 573,-866.5 567,-872.5 561,-872.5 561,-872.5 316,-872.5 316,-872.5 310,-872.5 304,-866.5 304,-860.5 304,-860.5 304,-715.5 304,-715.5 304,-709.5 310,-703.5 316,-703.5"/>
<text text-anchor="middle" x="438.5" y="-857.3" font-family="Times,serif" font-size="14.00" fill="#000000">Api::V1::Tasks::GetTasksController</text>
<polyline fill="none" stroke="#000000" points="304,-849.5 573,-849.5 "/>
<text text-anchor="start" x="312" y="-834.3" font-family="Times,serif" font-size="14.00" fill="#000000">by_course</text>
<text text-anchor="start" x="312" y="-819.3" font-family="Times,serif" font-size="14.00" fill="#000000">by_group</text>
<text text-anchor="start" x="312" y="-804.3" font-family="Times,serif" font-size="14.00" fill="#000000">by_pack</text>
<text text-anchor="start" x="312" y="-789.3" font-family="Times,serif" font-size="14.00" fill="#000000">by_student</text>
<text text-anchor="start" x="312" y="-774.3" font-family="Times,serif" font-size="14.00" fill="#000000">by_subtheme</text>
<text text-anchor="start" x="312" y="-759.3" font-family="Times,serif" font-size="14.00" fill="#000000">by_theme</text>
<polyline fill="none" stroke="#000000" points="304,-751.5 573,-751.5 "/>
<polyline fill="none" stroke="#000000" points="304,-727.5 573,-727.5 "/>
</g>
<!-- Api::V1::Tasks::TasksController -->
<g id="node26" class="node">
<title>Api::V1::Tasks::TasksController</title>
<path fill="none" stroke="#000000" d="M829,-836.5C829,-836.5 1048,-836.5 1048,-836.5 1054,-836.5 1060,-842.5 1060,-848.5 1060,-848.5 1060,-1007.5 1060,-1007.5 1060,-1013.5 1054,-1019.5 1048,-1019.5 1048,-1019.5 829,-1019.5 829,-1019.5 823,-1019.5 817,-1013.5 817,-1007.5 817,-1007.5 817,-848.5 817,-848.5 817,-842.5 823,-836.5 829,-836.5"/>
<text text-anchor="middle" x="938.5" y="-1004.3" font-family="Times,serif" font-size="14.00" fill="#000000">Api::V1::Tasks::TasksController</text>
<polyline fill="none" stroke="#000000" points="817,-996.5 1060,-996.5 "/>
<text text-anchor="start" x="825" y="-981.3" font-family="Times,serif" font-size="14.00" fill="#000000">create</text>
<text text-anchor="start" x="825" y="-966.3" font-family="Times,serif" font-size="14.00" fill="#000000">destroy</text>
<text text-anchor="start" x="825" y="-951.3" font-family="Times,serif" font-size="14.00" fill="#000000">index</text>
<text text-anchor="start" x="825" y="-936.3" font-family="Times,serif" font-size="14.00" fill="#000000">show</text>
<text text-anchor="start" x="825" y="-921.3" font-family="Times,serif" font-size="14.00" fill="#000000">update</text>
<polyline fill="none" stroke="#000000" points="817,-913.5 1060,-913.5 "/>
<polyline fill="none" stroke="#000000" points="817,-889.5 1060,-889.5 "/>
<text text-anchor="start" x="825" y="-874.3" font-family="Times,serif" font-size="14.00" fill="#000000">set_course</text>
<text text-anchor="start" x="825" y="-859.3" font-family="Times,serif" font-size="14.00" fill="#000000">set_task</text>
<text text-anchor="start" x="825" y="-844.3" font-family="Times,serif" font-size="14.00" fill="#000000">task_params</text>
</g>
<!-- ApplicationController -->
<g id="node27" class="node">
<title>ApplicationController</title>
<path fill="none" stroke="#000000" d="M392,-1045.5C392,-1045.5 540,-1045.5 540,-1045.5 546,-1045.5 552,-1051.5 552,-1057.5 552,-1057.5 552,-1127.5 552,-1127.5 552,-1133.5 546,-1139.5 540,-1139.5 540,-1139.5 392,-1139.5 392,-1139.5 386,-1139.5 380,-1133.5 380,-1127.5 380,-1127.5 380,-1057.5 380,-1057.5 380,-1051.5 386,-1045.5 392,-1045.5"/>
<text text-anchor="middle" x="466" y="-1124.3" font-family="Times,serif" font-size="14.00" fill="#000000">ApplicationController</text>
<polyline fill="none" stroke="#000000" points="380,-1116.5 552,-1116.5 "/>
<text text-anchor="start" x="388" y="-1101.3" font-family="Times,serif" font-size="14.00" fill="#000000">bad_request</text>
<polyline fill="none" stroke="#000000" points="380,-1093.5 552,-1093.5 "/>
<polyline fill="none" stroke="#000000" points="380,-1069.5 552,-1069.5 "/>
</g>
</g>
</svg>
