<?xml version="1.0" encoding="UTF-8" standalone="no"?>
<!DOCTYPE svg PUBLIC "-//W3C//DTD SVG 1.1//EN"
 "http://www.w3.org/Graphics/SVG/1.1/DTD/svg11.dtd">
<!-- Generated by graphviz version 2.40.1 (20161225.0304)
 -->
<!-- Title: models_diagram Pages: 1 -->
<svg width="1120pt" height="446pt"
 viewBox="0.00 0.00 1120.19 446.00" xmlns="http://www.w3.org/2000/svg" xmlns:xlink="http://www.w3.org/1999/xlink">
<g id="graph0" class="graph" transform="scale(1 1) rotate(0) translate(4 442)">
<title>models_diagram</title>
<polygon fill="transparent" stroke="transparent" points="-4,4 -4,-442 1116.1903,-442 1116.1903,4 -4,4"/>
<!-- _diagram_info -->
<g id="node1" class="node">
<title>_diagram_info</title>
<text text-anchor="start" x="468.643" y="-423.6" font-family="Times,serif" font-size="13.00" fill="#000000">Models diagram</text>
<text text-anchor="start" x="468.643" y="-409.6" font-family="Times,serif" font-size="13.00" fill="#000000">Date: May 14 2020 &#45; 14:14</text>
<text text-anchor="start" x="468.643" y="-395.6" font-family="Times,serif" font-size="13.00" fill="#000000">Migration version: 20200512195620</text>
<text text-anchor="start" x="468.643" y="-381.6" font-family="Times,serif" font-size="13.00" fill="#000000">Generated by RailRoady 1.5.3</text>
<text text-anchor="start" x="468.643" y="-367.6" font-family="Times,serif" font-size="13.00" fill="#000000">http://railroady.prestonlee.com</text>
</g>
<!-- Answer -->
<g id="node2" class="node">
<title>Answer</title>
<ellipse fill="none" stroke="#000000" cx="704.643" cy="-18" rx="46.2923" ry="18"/>
<text text-anchor="middle" x="704.643" y="-14.3" font-family="Times,serif" font-size="14.00" fill="#000000">Answer</text>
</g>
<!-- ApplicationRecord -->
<g id="node3" class="node">
<title>ApplicationRecord</title>
<ellipse fill="none" stroke="#000000" cx="935.643" cy="-399" rx="96.6831" ry="18"/>
<text text-anchor="middle" x="935.643" y="-395.3" font-family="Times,serif" font-size="14.00" fill="#000000">ApplicationRecord</text>
</g>
<!-- Attendance -->
<g id="node4" class="node">
<title>Attendance</title>
<ellipse fill="none" stroke="#000000" cx="832.643" cy="-18" rx="64.189" ry="18"/>
<text text-anchor="middle" x="832.643" y="-14.3" font-family="Times,serif" font-size="14.00" fill="#000000">Attendance</text>
</g>
<!-- Category -->
<g id="node5" class="node">
<title>Category</title>
<ellipse fill="none" stroke="#000000" cx="851.643" cy="-306" rx="53.8905" ry="18"/>
<text text-anchor="middle" x="851.643" y="-302.3" font-family="Times,serif" font-size="14.00" fill="#000000">Category</text>
</g>
<!-- Theme -->
<g id="node20" class="node">
<title>Theme</title>
<ellipse fill="none" stroke="#000000" cx="903.643" cy="-234" rx="42.4939" ry="18"/>
<text text-anchor="middle" x="903.643" y="-230.3" font-family="Times,serif" font-size="14.00" fill="#000000">Theme</text>
</g>
<!-- Category&#45;&gt;Theme -->
<g id="edge1" class="edge">
<title>Category&#45;&gt;Theme</title>
<path fill="none" stroke="#64c765" d="M869.2785,-281.5816C874.3205,-274.6005 879.8321,-266.9689 884.9359,-259.9022"/>
<ellipse fill="none" stroke="#64c765" cx="866.8389" cy="-284.9595" rx="4" ry="4"/>
<polygon fill="#64c765" stroke="#64c765" points="885.2614,-259.4514 894.7644,-253.9793 888.1889,-255.398 891.1164,-251.3446 891.1164,-251.3446 891.1164,-251.3446 888.1889,-255.398 887.4683,-248.7099 885.2614,-259.4514 885.2614,-259.4514"/>
</g>
<!-- Course -->
<g id="node6" class="node">
<title>Course</title>
<ellipse fill="none" stroke="#000000" cx="776.643" cy="-399" rx="44.393" ry="18"/>
<text text-anchor="middle" x="776.643" y="-395.3" font-family="Times,serif" font-size="14.00" fill="#000000">Course</text>
</g>
<!-- Course&#45;&gt;Category -->
<g id="edge3" class="edge">
<title>Course&#45;&gt;Category</title>
<path fill="none" stroke="#402fc1" d="M796.0637,-374.9184C806.8327,-361.5648 820.2167,-344.9686 831.1522,-331.4087"/>
<ellipse fill="none" stroke="#402fc1" cx="793.261" cy="-378.3937" rx="4" ry="4"/>
<polygon fill="#402fc1" stroke="#402fc1" points="831.3218,-331.1983 841.1022,-326.2391 834.4606,-327.3062 837.5994,-323.4142 837.5994,-323.4142 837.5994,-323.4142 834.4606,-327.3062 834.0965,-320.5892 831.3218,-331.1983 831.3218,-331.1983"/>
</g>
<!-- Group -->
<g id="node8" class="node">
<title>Group</title>
<ellipse fill="none" stroke="#000000" cx="685.643" cy="-162" rx="39.7935" ry="18"/>
<text text-anchor="middle" x="685.643" y="-158.3" font-family="Times,serif" font-size="14.00" fill="#000000">Group</text>
</g>
<!-- Course&#45;&gt;Group -->
<g id="edge2" class="edge">
<title>Course&#45;&gt;Group</title>
<path fill="none" stroke="#e5085a" d="M766.9214,-373.681C749.696,-328.8193 713.9598,-235.7481 696.1732,-189.4246"/>
<ellipse fill="none" stroke="#e5085a" cx="768.3694" cy="-377.4523" rx="4" ry="4"/>
<polygon fill="#e5085a" stroke="#e5085a" points="696.1468,-189.3557 696.7632,-178.4072 694.3545,-184.688 692.5622,-180.0202 692.5622,-180.0202 692.5622,-180.0202 694.3545,-184.688 688.3612,-181.6333 696.1468,-189.3557 696.1468,-189.3557"/>
</g>
<!-- GivenTask -->
<g id="node7" class="node">
<title>GivenTask</title>
<ellipse fill="none" stroke="#000000" cx="711.643" cy="-90" rx="59.5901" ry="18"/>
<text text-anchor="middle" x="711.643" y="-86.3" font-family="Times,serif" font-size="14.00" fill="#000000">GivenTask</text>
</g>
<!-- GivenTask&#45;&gt;Answer -->
<g id="edge4" class="edge">
<title>GivenTask&#45;&gt;Answer</title>
<path fill="none" stroke="#f765f6" d="M709.0972,-63.8144C708.5589,-58.2775 707.988,-52.4053 707.4409,-46.7785"/>
<ellipse fill="none" stroke="#f765f6" cx="709.4895" cy="-67.8501" rx="4" ry="4"/>
<polygon fill="#f765f6" stroke="#f765f6" points="707.4009,-46.3663 710.9121,-35.9778 706.9171,-41.3898 706.4332,-36.4133 706.4332,-36.4133 706.4332,-36.4133 706.9171,-41.3898 701.9543,-36.8488 707.4009,-46.3663 707.4009,-46.3663"/>
</g>
<!-- Group&#45;&gt;GivenTask -->
<g id="edge8" class="edge">
<title>Group&#45;&gt;GivenTask</title>
<path fill="none" stroke="#c6ee11" d="M694.8116,-136.6102C697.0419,-130.4338 699.4375,-123.7999 701.7018,-117.5295"/>
<ellipse fill="none" stroke="#c6ee11" cx="693.4286" cy="-140.44" rx="4" ry="4"/>
<polygon fill="#c6ee11" stroke="#c6ee11" points="701.7129,-117.4987 709.3419,-109.6215 703.4111,-112.7959 705.1094,-108.0931 705.1094,-108.0931 705.1094,-108.0931 703.4111,-112.7959 700.8769,-106.5647 701.7129,-117.4987 701.7129,-117.4987"/>
</g>
<!-- Lesson -->
<g id="node9" class="node">
<title>Lesson</title>
<ellipse fill="none" stroke="#000000" cx="832.643" cy="-90" rx="43.5923" ry="18"/>
<text text-anchor="middle" x="832.643" y="-86.3" font-family="Times,serif" font-size="14.00" fill="#000000">Lesson</text>
</g>
<!-- Group&#45;&gt;Lesson -->
<g id="edge6" class="edge">
<title>Group&#45;&gt;Lesson</title>
<path fill="none" stroke="#d1c1cf" d="M719.9214,-145.2106C742.4739,-134.1645 771.9938,-119.7057 795.1669,-108.3556"/>
<ellipse fill="none" stroke="#d1c1cf" cx="716.1973" cy="-147.0346" rx="4" ry="4"/>
<polygon fill="#d1c1cf" stroke="#d1c1cf" points="795.3683,-108.2571 806.3283,-107.8996 799.8586,-106.0577 804.3489,-103.8583 804.3489,-103.8583 804.3489,-103.8583 799.8586,-106.0577 802.3695,-99.8171 795.3683,-108.2571 795.3683,-108.2571"/>
</g>
<!-- Payment -->
<g id="node13" class="node">
<title>Payment</title>
<ellipse fill="none" stroke="#000000" cx="382.643" cy="-90" rx="51.1914" ry="18"/>
<text text-anchor="middle" x="382.643" y="-86.3" font-family="Times,serif" font-size="14.00" fill="#000000">Payment</text>
</g>
<!-- Group&#45;&gt;Payment -->
<g id="edge7" class="edge">
<title>Group&#45;&gt;Payment</title>
<path fill="none" stroke="#3cae57" d="M641.3573,-153.1691C592.4726,-143.1867 511.5699,-125.9721 442.643,-108 438.8447,-107.0096 434.9247,-105.9407 430.9929,-104.8351"/>
<ellipse fill="none" stroke="#3cae57" cx="645.2966" cy="-153.9704" rx="4" ry="4"/>
<polygon fill="#3cae57" stroke="#3cae57" points="430.868,-104.7992 422.5015,-97.7103 426.0628,-103.4171 421.2576,-102.035 421.2576,-102.035 421.2576,-102.035 426.0628,-103.4171 420.0137,-106.3596 430.868,-104.7992 430.868,-104.7992"/>
</g>
<!-- StudentsInGroup -->
<g id="node16" class="node">
<title>StudentsInGroup</title>
<ellipse fill="none" stroke="#000000" cx="542.643" cy="-90" rx="90.9839" ry="18"/>
<text text-anchor="middle" x="542.643" y="-86.3" font-family="Times,serif" font-size="14.00" fill="#000000">StudentsInGroup</text>
</g>
<!-- Group&#45;&gt;StudentsInGroup -->
<g id="edge5" class="edge">
<title>Group&#45;&gt;StudentsInGroup</title>
<path fill="none" stroke="#4157a0" d="M651.9274,-145.0243C632.003,-134.9924 606.5861,-122.1951 585.2789,-111.467"/>
<ellipse fill="none" stroke="#4157a0" cx="655.5082" cy="-146.8272" rx="4" ry="4"/>
<polygon fill="#4157a0" stroke="#4157a0" points="585.0525,-111.3531 578.1445,-102.8366 580.5867,-109.1045 576.1208,-106.8559 576.1208,-106.8559 576.1208,-106.8559 580.5867,-109.1045 574.0971,-110.8752 585.0525,-111.3531 585.0525,-111.3531"/>
</g>
<!-- Lesson&#45;&gt;Attendance -->
<g id="edge9" class="edge">
<title>Lesson&#45;&gt;Attendance</title>
<path fill="none" stroke="#0b948a" d="M832.643,-63.8144C832.643,-58.2775 832.643,-52.4053 832.643,-46.7785"/>
<ellipse fill="none" stroke="#0b948a" cx="832.6431" cy="-67.8314" rx="4" ry="4"/>
<polygon fill="#0b948a" stroke="#0b948a" points="832.6431,-46.4133 837.143,-36.4132 832.6431,-41.4133 832.643,-36.4133 832.643,-36.4133 832.643,-36.4133 832.6431,-41.4133 828.143,-36.4133 832.6431,-46.4133 832.6431,-46.4133"/>
</g>
<!-- PackOfTask -->
<g id="node10" class="node">
<title>PackOfTask</title>
<ellipse fill="none" stroke="#000000" cx="809.643" cy="-162" rx="66.0889" ry="18"/>
<text text-anchor="middle" x="809.643" y="-158.3" font-family="Times,serif" font-size="14.00" fill="#000000">PackOfTask</text>
</g>
<!-- TasksInPack -->
<g id="node18" class="node">
<title>TasksInPack</title>
<ellipse fill="none" stroke="#000000" cx="963.643" cy="-90" rx="69.5877" ry="18"/>
<text text-anchor="middle" x="963.643" y="-86.3" font-family="Times,serif" font-size="14.00" fill="#000000">TasksInPack</text>
</g>
<!-- PackOfTask&#45;&gt;TasksInPack -->
<g id="edge10" class="edge">
<title>PackOfTask&#45;&gt;TasksInPack</title>
<path fill="none" stroke="#87259f" d="M850.5119,-142.8925C872.1524,-132.7749 898.7166,-120.3552 920.6648,-110.0937"/>
<ellipse fill="none" stroke="#87259f" cx="846.6823" cy="-144.6829" rx="4" ry="4"/>
<polygon fill="#87259f" stroke="#87259f" points="920.7019,-110.0764 931.6666,-109.9175 925.2313,-107.9587 929.7607,-105.8411 929.7607,-105.8411 929.7607,-105.8411 925.2313,-107.9587 927.8548,-101.7646 920.7019,-110.0764 920.7019,-110.0764"/>
</g>
<!-- Parent -->
<g id="node11" class="node">
<title>Parent</title>
<ellipse fill="none" stroke="#000000" cx="198.643" cy="-234" rx="41.6928" ry="18"/>
<text text-anchor="middle" x="198.643" y="-230.3" font-family="Times,serif" font-size="14.00" fill="#000000">Parent</text>
</g>
<!-- Student -->
<g id="node14" class="node">
<title>Student</title>
<ellipse fill="none" stroke="#000000" cx="263.643" cy="-162" rx="48.1917" ry="18"/>
<text text-anchor="middle" x="263.643" y="-158.3" font-family="Times,serif" font-size="14.00" fill="#000000">Student</text>
</g>
<!-- Parent&#45;&gt;Student -->
<g id="edge12" class="edge">
<title>Parent&#45;&gt;Student</title>
<path fill="none" stroke="#52bbae" d="M220.8707,-209.3785C227.3968,-202.1496 234.5389,-194.2384 241.0854,-186.9869"/>
<polygon fill="#52bbae" stroke="#52bbae" points="220.7482,-209.5143 210.7069,-213.9215 217.3976,-213.2257 214.0471,-216.937 214.0471,-216.937 214.0471,-216.937 217.3976,-213.2257 217.3873,-219.9525 220.7482,-209.5143 220.7482,-209.5143"/>
<polygon fill="#52bbae" stroke="#52bbae" points="241.1969,-186.8634 251.2382,-182.4562 244.5474,-183.152 247.898,-179.4407 247.898,-179.4407 247.898,-179.4407 244.5474,-183.152 244.5578,-176.4252 241.1969,-186.8634 241.1969,-186.8634"/>
</g>
<!-- StudentParent -->
<g id="node15" class="node">
<title>StudentParent</title>
<ellipse fill="none" stroke="#000000" cx="78.643" cy="-90" rx="78.7863" ry="18"/>
<text text-anchor="middle" x="78.643" y="-86.3" font-family="Times,serif" font-size="14.00" fill="#000000">StudentParent</text>
</g>
<!-- Parent&#45;&gt;StudentParent -->
<g id="edge11" class="edge">
<title>Parent&#45;&gt;StudentParent</title>
<path fill="none" stroke="#2ebc16" d="M179.2787,-210.7628C157.627,-184.7808 122.6567,-142.8164 100.1647,-115.826"/>
<ellipse fill="none" stroke="#2ebc16" cx="181.8455" cy="-213.8429" rx="4" ry="4"/>
<polygon fill="#2ebc16" stroke="#2ebc16" points="100.0155,-115.6469 97.0706,-105.0838 96.8145,-111.8058 93.6136,-107.9647 93.6136,-107.9647 93.6136,-107.9647 96.8145,-111.8058 90.1566,-110.8455 100.0155,-115.6469 100.0155,-115.6469"/>
</g>
<!-- Payback -->
<g id="node12" class="node">
<title>Payback</title>
<ellipse fill="none" stroke="#000000" cx="263.643" cy="-90" rx="50.0912" ry="18"/>
<text text-anchor="middle" x="263.643" y="-86.3" font-family="Times,serif" font-size="14.00" fill="#000000">Payback</text>
</g>
<!-- Student&#45;&gt;Attendance -->
<g id="edge16" class="edge">
<title>Student&#45;&gt;Attendance</title>
<path fill="none" stroke="#5f2a9d" d="M233.8536,-140.6987C210.4722,-121.4731 184.9067,-93.058 204.643,-72 246.9017,-26.9114 698.5711,-45.4341 759.643,-36 765.1256,-35.1531 770.7998,-34.0913 776.4508,-32.9092"/>
<ellipse fill="none" stroke="#5f2a9d" cx="237.2198" cy="-143.3747" rx="4" ry="4"/>
<polygon fill="#5f2a9d" stroke="#5f2a9d" points="776.7878,-32.8347 787.5243,-35.0658 781.6695,-31.7535 786.5513,-30.6722 786.5513,-30.6722 786.5513,-30.6722 781.6695,-31.7535 785.5782,-26.2787 776.7878,-32.8347 776.7878,-32.8347"/>
</g>
<!-- Student&#45;&gt;GivenTask -->
<g id="edge15" class="edge">
<title>Student&#45;&gt;GivenTask</title>
<path fill="none" stroke="#b2206a" d="M318.2913,-156.1901C392.2518,-147.8779 528.1391,-131.0151 642.643,-108 647.5985,-107.004 652.7283,-105.8678 657.8509,-104.6615"/>
<ellipse fill="none" stroke="#b2206a" cx="313.9962" cy="-156.6693" rx="4" ry="4"/>
<polygon fill="#b2206a" stroke="#b2206a" points="657.9297,-104.6424 668.7111,-106.6458 662.7875,-103.4581 667.6452,-102.2738 667.6452,-102.2738 667.6452,-102.2738 662.7875,-103.4581 666.5793,-97.9019 657.9297,-104.6424 657.9297,-104.6424"/>
</g>
<!-- Student&#45;&gt;Payback -->
<g id="edge17" class="edge">
<title>Student&#45;&gt;Payback</title>
<path fill="none" stroke="#ac6f56" d="M263.643,-135.8144C263.643,-130.2775 263.643,-124.4053 263.643,-118.7785"/>
<ellipse fill="none" stroke="#ac6f56" cx="263.6431" cy="-139.8314" rx="4" ry="4"/>
<polygon fill="#ac6f56" stroke="#ac6f56" points="263.6431,-118.4133 268.143,-108.4132 263.6431,-113.4133 263.643,-108.4133 263.643,-108.4133 263.643,-108.4133 263.6431,-113.4133 259.143,-108.4133 263.6431,-118.4133 263.6431,-118.4133"/>
</g>
<!-- Student&#45;&gt;Payment -->
<g id="edge18" class="edge">
<title>Student&#45;&gt;Payment</title>
<path fill="none" stroke="#2c0bac" d="M296.2212,-142.2889C312.2925,-132.565 331.6845,-120.832 348.0235,-110.9463"/>
<ellipse fill="none" stroke="#2c0bac" cx="292.5939" cy="-144.4835" rx="4" ry="4"/>
<polygon fill="#2c0bac" stroke="#2c0bac" points="348.1903,-110.8454 359.0757,-109.5188 352.4682,-108.257 356.7461,-105.6687 356.7461,-105.6687 356.7461,-105.6687 352.4682,-108.257 354.4166,-101.8186 348.1903,-110.8454 348.1903,-110.8454"/>
</g>
<!-- Student&#45;&gt;StudentParent -->
<g id="edge13" class="edge">
<title>Student&#45;&gt;StudentParent</title>
<path fill="none" stroke="#b4aca6" d="M222.5251,-145.9974C194.7064,-135.1706 157.8063,-120.8095 128.3402,-109.3416"/>
<ellipse fill="none" stroke="#b4aca6" cx="226.4133" cy="-147.5106" rx="4" ry="4"/>
<polygon fill="#b4aca6" stroke="#b4aca6" points="127.9753,-109.1997 120.2883,-101.3791 123.3158,-107.3862 118.6562,-105.5727 118.6562,-105.5727 118.6562,-105.5727 123.3158,-107.3862 117.0241,-109.7663 127.9753,-109.1997 127.9753,-109.1997"/>
</g>
<!-- Student&#45;&gt;StudentsInGroup -->
<g id="edge14" class="edge">
<title>Student&#45;&gt;StudentsInGroup</title>
<path fill="none" stroke="#fbba99" d="M311.2058,-149.7257C356.9292,-137.9261 426.4074,-119.9963 477.3095,-106.8603"/>
<ellipse fill="none" stroke="#fbba99" cx="307.1937" cy="-150.7611" rx="4" ry="4"/>
<polygon fill="#fbba99" stroke="#fbba99" points="477.547,-106.7991 488.3542,-108.6574 482.3884,-105.5496 487.2298,-104.3002 487.2298,-104.3002 487.2298,-104.3002 482.3884,-105.5496 486.1053,-99.9429 477.547,-106.7991 477.547,-106.7991"/>
</g>
<!-- Task -->
<g id="node17" class="node">
<title>Task</title>
<ellipse fill="none" stroke="#000000" cx="963.643" cy="-162" rx="32.4942" ry="18"/>
<text text-anchor="middle" x="963.643" y="-158.3" font-family="Times,serif" font-size="14.00" fill="#000000">Task</text>
</g>
<!-- Task&#45;&gt;GivenTask -->
<g id="edge20" class="edge">
<title>Task&#45;&gt;GivenTask</title>
<path fill="none" stroke="#aba98a" d="M926.8946,-151.5004C884.3073,-139.3326 813.7624,-119.177 765.1048,-105.2748"/>
<ellipse fill="none" stroke="#aba98a" cx="930.8893" cy="-152.6418" rx="4" ry="4"/>
<polygon fill="#aba98a" stroke="#aba98a" points="764.9914,-105.2425 756.6124,-98.1683 760.1838,-103.8688 755.3762,-102.4952 755.3762,-102.4952 755.3762,-102.4952 760.1838,-103.8688 754.1399,-106.822 764.9914,-105.2425 764.9914,-105.2425"/>
</g>
<!-- Task&#45;&gt;TasksInPack -->
<g id="edge19" class="edge">
<title>Task&#45;&gt;TasksInPack</title>
<path fill="none" stroke="#47eca0" d="M963.643,-135.8144C963.643,-130.2775 963.643,-124.4053 963.643,-118.7785"/>
<ellipse fill="none" stroke="#47eca0" cx="963.6431" cy="-139.8314" rx="4" ry="4"/>
<polygon fill="#47eca0" stroke="#47eca0" points="963.6431,-118.4133 968.143,-108.4132 963.6431,-113.4133 963.643,-108.4133 963.643,-108.4133 963.643,-108.4133 963.6431,-113.4133 959.143,-108.4133 963.6431,-118.4133 963.6431,-118.4133"/>
</g>
<!-- Test -->
<g id="node19" class="node">
<title>Test</title>
<ellipse fill="none" stroke="#000000" cx="1081.643" cy="-90" rx="30.5947" ry="18"/>
<text text-anchor="middle" x="1081.643" y="-86.3" font-family="Times,serif" font-size="14.00" fill="#000000">Test</text>
</g>
<!-- Task&#45;&gt;Test -->
<g id="edge21" class="edge">
<title>Task&#45;&gt;Test</title>
<path fill="none" stroke="#a3448f" d="M992.6468,-144.3028C1010.4545,-133.4371 1033.2292,-119.5406 1051.2815,-108.5257"/>
<ellipse fill="none" stroke="#a3448f" cx="988.9759" cy="-146.5426" rx="4" ry="4"/>
<polygon fill="#a3448f" stroke="#a3448f" points="1051.7035,-108.2682 1062.5838,-106.9009 1055.9717,-105.6639 1060.2399,-103.0595 1060.2399,-103.0595 1060.2399,-103.0595 1055.9717,-105.6639 1057.896,-99.2181 1051.7035,-108.2682 1051.7035,-108.2682"/>
</g>
<!-- Theme&#45;&gt;Lesson -->
<g id="edge23" class="edge">
<title>Theme&#45;&gt;Lesson</title>
<path fill="none" stroke="#4bb0d7" d="M901.9451,-207.6713C899.8449,-188.9928 895.1477,-163.8232 884.643,-144 878.5489,-132.4999 869.2812,-121.7445 860.2493,-112.9068"/>
<ellipse fill="none" stroke="#4bb0d7" cx="902.3478" cy="-211.7732" rx="4" ry="4"/>
<polygon fill="#4bb0d7" stroke="#4bb0d7" points="860.1094,-112.7765 855.8601,-102.6673 856.451,-109.3682 852.7927,-105.9599 852.7927,-105.9599 852.7927,-105.9599 856.451,-109.3682 849.7252,-109.2524 860.1094,-112.7765 860.1094,-112.7765"/>
</g>
<!-- Theme&#45;&gt;Task -->
<g id="edge22" class="edge">
<title>Theme&#45;&gt;Task</title>
<path fill="none" stroke="#d1bc7f" d="M923.1064,-210.644C929.5384,-202.9255 936.7107,-194.3188 943.2129,-186.5161"/>
<ellipse fill="none" stroke="#d1bc7f" cx="920.4229" cy="-213.8641" rx="4" ry="4"/>
<polygon fill="#d1bc7f" stroke="#d1bc7f" points="943.537,-186.1272 953.3959,-181.3258 946.738,-182.286 949.9389,-178.4449 949.9389,-178.4449 949.9389,-178.4449 946.738,-182.286 946.4819,-175.5641 943.537,-186.1272 943.537,-186.1272"/>
</g>
<!-- User -->
<g id="node21" class="node">
<title>User</title>
<ellipse fill="none" stroke="#000000" cx="778.643" cy="-234" rx="33.2948" ry="18"/>
<text text-anchor="middle" x="778.643" y="-230.3" font-family="Times,serif" font-size="14.00" fill="#000000">User</text>
</g>
<!-- User&#45;&gt;Group -->
<g id="edge25" class="edge">
<title>User&#45;&gt;Group</title>
<path fill="none" stroke="#357465" d="M752.8343,-214.0191C740.78,-204.6867 726.3953,-193.5502 714.0341,-183.9802"/>
<ellipse fill="none" stroke="#357465" cx="756.2105" cy="-216.6328" rx="4" ry="4"/>
<polygon fill="#357465" stroke="#357465" points="713.7603,-183.7683 708.6079,-174.0882 709.8067,-180.7074 705.8531,-177.6465 705.8531,-177.6465 705.8531,-177.6465 709.8067,-180.7074 703.0983,-181.2048 713.7603,-183.7683 713.7603,-183.7683"/>
</g>
<!-- User&#45;&gt;PackOfTask -->
<g id="edge24" class="edge">
<title>User&#45;&gt;PackOfTask</title>
<path fill="none" stroke="#a28cd1" d="M789.5748,-208.6102C792.234,-202.4338 795.0903,-195.7999 797.7901,-189.5295"/>
<ellipse fill="none" stroke="#a28cd1" cx="787.8878" cy="-212.5283" rx="4" ry="4"/>
<polygon fill="#a28cd1" stroke="#a28cd1" points="797.8983,-189.278 805.9861,-181.8727 799.8756,-184.6855 801.8529,-180.0931 801.8529,-180.0931 801.8529,-180.0931 799.8756,-184.6855 797.7197,-178.3135 797.8983,-189.278 797.8983,-189.278"/>
</g>
</g>
</svg>
